<?xml version="1.0" ?><!DOCTYPE svg  PUBLIC '-//W3C//DTD SVG 1.1//EN'  'http://www.w3.org/Graphics/SVG/1.1/DTD/svg11.dtd'><svg height="23.9021mm" style="shape-rendering:geometricPrecision; text-rendering:geometricPrecision; image-rendering:optimizeQuality; fill-rule:evenodd; clip-rule:evenodd" version="1.1" viewBox="0 0 4271 2390" width="42.7085mm" xml:space="preserve" xmlns="http://www.w3.org/2000/svg" xmlns:xlink="http://www.w3.org/1999/xlink"><defs><style type="text/css">
   <![CDATA[
    .fil0 {fill:black;fill-rule:nonzero}
   ]]>
  </style></defs><g id="Layer_x0020_1"><path class="fil0" d="M1167 625c-2,0 -596,43 -884,277l-108 258c0,1 -1,2 -1,4 -16,33 -251,523 -25,697 366,108 960,114 1473,119 187,2 364,4 514,11l0 0c20,0 333,5 349,-41 2,-7 6,-37 13,-80 23,-167 75,-528 198,-729 81,-134 191,-200 342,-109l1 1 0 0c0,0 170,107 155,701l2 58 660 -167c14,-112 98,-702 296,-652 9,2 40,10 62,66 12,-106 8,-243 -69,-318 -31,-30 -67,-72 -109,-121 -169,-199 -440,-516 -789,-533 -261,-13 -641,-22 -971,-5 -233,12 -440,38 -561,84 -2,1 -4,1 -6,2 -10,2 -127,33 -524,469 -5,5 -12,8 -18,8l0 0zm-923 240c277,-229 826,-284 909,-291 384,-420 522,-472 544,-478 127,-48 339,-74 577,-86 331,-18 713,-9 975,4 373,19 652,346 827,551 42,49 77,90 105,118 157,153 62,498 56,521 -3,12 -14,20 -26,20 -15,0 -27,-12 -27,-26 0,-173 -37,-172 -37,-172l0 0c-2,0 -4,-1 -6,-1 -158,-46 -232,599 -235,623 -1,11 -8,21 -19,24l-710 180 0 0c-1,0 -3,0 -5,0 -14,1 -27,-10 -27,-25l-4 -92 0 0 0 -1c14,-566 -131,-657 -132,-657l0 0c-116,-71 -203,-16 -268,91 -117,192 -168,546 -191,709 -7,46 -11,78 -15,90 -28,82 -380,77 -400,77l-1 -1c-151,-6 -326,-8 -513,-10 -518,-5 -1119,-12 -1492,-123l0 0c-3,-1 -6,-2 -8,-4 -267,-198 -11,-733 6,-766l0 0 110 -265 0 0c2,-3 4,-7 7,-10z"/><path class="fil0" d="M1206 633c-15,0 -27,-12 -27,-27 0,-14 12,-26 26,-26l1676 -7c20,-93 104,-466 201,-536 12,-8 29,-5 37,7 9,12 6,28 -6,36 -93,67 -181,507 -184,524 -2,12 -13,21 -26,21l-1697 8z"/><path class="fil0" d="M3083 600c5,-27 100,-489 245,-472 68,8 186,78 301,167 113,88 224,195 277,279 8,12 4,28 -8,36 -4,3 -9,4 -14,4 -2,0 -779,26 -794,11 -7,-7 -9,-16 -7,-25zm239 -419c-86,-10 -163,317 -183,408 81,1 543,-19 695,-25 -56,-72 -146,-156 -238,-227 -107,-84 -216,-150 -274,-156z"/><path class="fil0" d="M3558 337c1,-14 13,-26 27,-25 15,0 26,13 26,27l-9 222c-1,15 -13,26 -28,26 -14,-1 -26,-13 -25,-28l9 -222z"/><path class="fil0" d="M368 918c43,-2 1037,-57 1336,15 10,3 18,11 20,21l0 0c0,1 79,402 -400,413 -42,2 -83,3 -123,4 -408,11 -769,20 -840,-85 -45,-67 -62,-180 -57,-259 2,-22 5,-42 10,-58 6,-20 16,-35 28,-43l0 0c8,-6 17,-8 26,-8zm1306 63c-311,-65 -1265,-13 -1303,-10l-1 0c-1,2 -3,7 -5,13 -4,13 -7,28 -8,47 -5,70 9,169 47,226 56,81 403,72 795,61 41,-1 82,-2 123,-3 362,-9 359,-265 352,-334z"/><g><path class="fil0" d="M1757 1228c3,-16 54,-240 254,-323 121,-50 300,-71 424,-71 39,0 73,2 99,6 33,6 55,16 62,33 0,1 1,2 1,3 1,3 2,6 2,10 0,3 0,4 0,5l0 0c2,65 12,370 -817,370 -14,0 -26,-12 -26,-26 0,-3 0,-5 1,-7zm274 -274c-138,57 -195,192 -214,254 738,-8 731,-260 729,-315l0 0 0 -1c-3,0 -9,2 -21,0 -22,-3 -53,-5 -90,-5 -119,0 -290,20 -404,67zm568 -63c0,15 -11,27 -26,27l26 -27z"/></g><path class="fil0" d="M242 947c0,-15 11,-27 26,-27 14,-1 27,11 27,25l9 278c1,12 -8,23 -20,26 -14,4 -108,27 -141,-70 -5,-14 2,-29 16,-34 14,-4 29,3 34,17 12,35 39,41 58,40l-9 -255z"/><path class="fil0" d="M73 1821c-14,-1 -26,-13 -25,-27 0,-15 12,-26 27,-26l2423 74c14,0 26,13 25,27 0,15 -12,26 -27,26l-2423 -74z"/><path class="fil0" d="M207 1787c-4,14 -19,21 -33,16 -14,-4 -21,-19 -17,-33 1,-1 96,-287 234,-293 120,-6 1110,23 1113,23 1,0 3,1 4,1l0 0c1,0 138,27 188,77 45,44 226,235 227,236 10,10 9,27 -1,37 -11,10 -28,9 -38,-1 0,-1 -181,-191 -225,-235 -35,-35 -142,-59 -159,-62 -53,-2 -992,-29 -1107,-24 -101,5 -185,257 -186,258z"/><path class="fil0" d="M2574 898c-13,7 -29,2 -36,-11 -7,-13 -2,-29 11,-36 1,0 299,-157 329,-260 4,-14 19,-22 33,-18 14,4 22,18 18,32 -37,125 -354,293 -355,293z"/><path class="fil0" d="M3165 1336c-14,2 -27,-8 -29,-23 -2,-14 8,-27 22,-29l783 -103c14,-2 28,8 29,23 2,14 -8,27 -22,29l-783 103z"/><path class="fil0" d="M3582 650c-9,-12 -7,-28 5,-37 11,-9 28,-7 37,5 0,0 60,81 60,189 0,93 -22,854 -22,856 0,15 -12,26 -27,26 -15,0 -26,-12 -26,-27 0,-2 22,-751 22,-855 0,-91 -49,-157 -49,-157z"/><path class="fil0" d="M175 1920c-3,-15 5,-29 19,-33 14,-4 29,5 32,19 1,0 54,204 296,265 76,20 185,19 288,-17 80,-29 155,-78 206,-157 8,-12 25,-15 37,-7 12,8 15,24 7,36 -58,89 -143,146 -232,177 -113,40 -235,41 -319,19 -272,-69 -334,-302 -334,-302z"/><path class="fil0" d="M2044 2028c-1,-14 10,-27 24,-29 15,-1 28,10 29,25 0,0 20,257 286,300 25,4 50,7 76,9 132,12 286,2 415,-62 126,-64 229,-181 262,-383 3,-19 5,-38 7,-57 1,-15 14,-25 28,-24 15,1 26,14 24,29 -2,21 -4,41 -7,60 -36,222 -150,351 -291,422 -139,69 -303,81 -443,68 -27,-3 -54,-6 -79,-10 -307,-50 -331,-347 -331,-348z"/><path class="fil0" d="M2535 1959c6,14 -1,29 -14,35 -5,2 -9,2 -14,2l27 11c1,24 5,57 13,93 22,97 76,214 199,210 15,-1 27,11 27,25 1,15 -11,27 -25,27 -159,6 -226,-134 -253,-250 -9,-40 -13,-76 -14,-103 -1,-14 0,-26 3,-36 -1,-5 -1,-10 2,-15 5,-12 18,-18 30,-15l0 0c2,0 3,0 4,1l0 0 0 0c7,3 12,8 15,15z"/><path class="fil0" d="M2773 1161c-13,6 -29,1 -35,-12 -7,-13 -1,-29 12,-35 0,-1 222,-113 382,115 8,12 5,28 -6,36 -12,9 -29,6 -37,-6 -134,-191 -315,-98 -316,-98z"/><path class="fil0" d="M3709 1716c-1,-15 10,-27 24,-28 15,-1 27,10 28,24 0,1 10,192 114,192 5,0 21,1 37,1 108,2 225,4 264,-174 46,-216 7,-479 7,-480 -2,-14 8,-28 22,-30 15,-2 28,8 30,23 0,1 41,273 -8,498 -48,221 -186,218 -316,216 -10,-1 -18,-1 -36,-1 -154,0 -166,-241 -166,-241z"/><path class="fil0" d="M4194 1199c11,10 11,27 1,37 -10,11 -27,11 -38,1 0,0 -76,-77 -110,68 -22,98 -33,263 -20,390 5,50 13,93 26,124 10,23 21,38 32,38 3,0 7,0 11,-2 14,-6 29,1 34,15 6,13 -1,28 -14,34 -11,4 -22,6 -33,6 -35,-2 -61,-28 -79,-71 -14,-36 -24,-84 -30,-138 -13,-134 -2,-306 22,-408 55,-237 198,-94 198,-94z"/></g></svg>